<svg id="Layer_1" enable-background="new 0 0 100 100" viewBox="0 0 100 100" xmlns="http://www.w3.org/2000/svg"><g clip-rule="evenodd" fill-rule="evenodd"><path d="m96.837265 19.9325008-38.8391456 38.8414212c-4.4175072 4.4152489-11.5787315 4.4152489-15.9962387 0l-38.8391445-38.8414212c-.4320452.9047585-.6627364 1.9022617-.6627364 2.9246426v54.285717c0 1.8004684.7147834 3.5262985 1.988209 4.7975006 1.2712169 1.2734451 2.9970522 1.9882126 4.7975054 1.9882126h81.4285736c1.8004532 0 3.5262909-.7147675 4.7975006-1.9882126 1.2734289-1.2712021 1.9882116-2.9970321 1.9882116-4.7975006v-54.285717c0-1.0223808-.23069-2.0198841-.662735-2.9246426z"/><path d="m93.6389236 16.7341652c-.904747-.4320202-1.9022675-.6627369-2.9246368-.6627369-18.9253693 0-62.5032043 0-81.4285736 0-1.0223722 0-2.0198927.2307167-2.9246411.6627369l38.841423 38.8391609c2.6486664 2.6509628 6.9463425 2.6509628 9.5950089 0z"/></g></svg>